<?xml version="1.0" encoding="utf-8"?>
<!-- Generator: Adobe Illustrator 25.1.0, SVG Export Plug-In . SVG Version: 6.00 Build 0)  -->
<svg version="1.1" id="Layer_1" xmlns="http://www.w3.org/2000/svg" xmlns:xlink="http://www.w3.org/1999/xlink" x="0px" y="0px"
	 viewBox="0 0 337 51.2" style="enable-background:new 0 0 337 51.2;" xml:space="preserve">
<style type="text/css">
	.st0{fill:#35A8E0;}
	.st1{fill:#FFFFFF;}
</style>
<g id="Layer_2_1_">
	<g id="Layer_1-2">
		<path class="st0" d="M43.6,42.6v8.6H16.1V44c8.2-13.3,13-21.6,14.5-24.8c1.5-3.2,2.4-5.6,2.4-7.4c0-1.1-0.2-2.1-0.7-3.1
			c-0.5-0.7-1.4-1-2.2-1c-0.8,0-1.6,0.4-2.1,1.1c-0.5,0.8-0.7,2.3-0.7,4.5V18H16.1v-1.8c-0.1-2.2,0.1-4.4,0.4-6.6
			c0.3-1.8,1.1-3.4,2.2-4.8c1.1-1.6,2.6-2.8,4.4-3.6c2.1-0.8,4.3-1.3,6.5-1.2c5,0,8.8,1.2,11.3,3.7c2.6,2.4,4,5.9,3.9,9.4
			c0,3.2-0.8,6.3-2.2,9.1c-1.4,3.2-5.7,10-12.7,20.4H43.6z"/>
		<path class="st0" d="M61.5,12.6v21.2h-6.9L61.5,12.6z M57.5,1L46.7,33.8v8.5h14.8v8.9h12.6v-8.9h3.5v-8.5h-3.5V1H57.5z"/>
		<polygon class="st0" points="7.2,14.7 7.2,21.9 0,21.9 0,26.8 7.2,26.8 7.2,34 12.1,34 12.1,26.8 19.4,26.8 19.4,21.9 12.1,21.9 
			12.1,14.7 		"/>
		<g>
			<g>
				<polygon class="st1" points="104.4,28.6 97,14.7 94.7,14.7 94.7,34.1 96.7,34.1 96.7,18.6 103.9,32.1 104.9,32.1 112,18.6 
					112,34.1 114,31.3 114,14.7 111.7,14.7 				"/>
				<path class="st1" d="M138.4,14.7h-1.8l-8.8,19.4h2.3l2.4-5.3h10.1l2.4,5.3h2.3L138.6,15L138.4,14.7z M133.4,26.7l4.1-9.1
					l4.2,9.1H133.4z"/>
				<path class="st1" d="M174.5,25.4c0.8-1.2,1.3-2.7,1.2-4.2c0.1-1.8-0.6-3.6-2-4.8c-1.3-1.2-3.2-1.7-5.6-1.7h-7v19.4h2.1v-6.2h6.2
					l4.4,6.3h2.5l-4.8-6.7C172.7,27.1,173.7,26.4,174.5,25.4z M168.1,25.9h-4.9v-9.2h4.9c1.5-0.1,3,0.3,4.2,1.2
					c0.9,0.8,1.4,2,1.4,3.3c0.1,1.3-0.4,2.6-1.4,3.5C171.1,25.6,169.6,26,168.1,25.9z"/>
				<polygon class="st1" points="205.2,14.7 202.5,14.7 192.2,25.8 192.2,16.7 190.1,14.7 190.1,34.1 192.2,34.1 192.2,28.8 
					195.7,24.9 203,34.1 205.6,34.1 197.2,23.4 				"/>
				<polygon class="st1" points="246.1,16.7 252.4,16.7 252.4,34.1 254.4,31.3 254.4,16.7 260.7,16.7 260.7,14.7 246.1,14.7 				"/>
				<rect x="274.5" y="14.7" class="st1" width="2.1" height="19.4"/>
				<polygon class="st1" points="304,30.5 292.5,14.9 292.4,14.7 290.4,14.7 290.4,34.1 292.4,31.3 292.4,18.3 304,34.1 306,34.1 
					306,14.7 304,14.7 				"/>
				<path class="st1" d="M334.9,30.5c-0.7,0.5-1.5,0.9-2.3,1.2c-2.2,0.8-4.7,0.5-6.7-0.6c-1.2-0.7-2.2-1.7-2.9-2.9
					c-0.7-1.2-1.1-2.5-1.1-3.9c0-1.3,0.4-2.7,1.1-3.8c0.7-1.2,1.7-2.2,2.9-2.9c2.1-1.2,4.7-1.4,7-0.5c0.9,0.4,1.7,0.9,2.5,1.5
					l0.4,0.4l1.2-1.6l-0.3-0.3c-1-0.8-2-1.4-3.2-1.9c-1.2-0.4-2.4-0.7-3.6-0.7c-1.8,0-3.5,0.5-5,1.4c-1.5,0.8-2.8,2-3.7,3.5
					c-1.9,3-1.9,6.9,0,9.9c0.9,1.5,2.1,2.7,3.6,3.5c1.5,0.9,3.2,1.4,5,1.4c1.3,0,2.5-0.3,3.7-0.7c1.2-0.5,2.2-1.1,3.2-1.9h0.1v-7.5
					l-1.9,2.5L334.9,30.5L334.9,30.5z"/>
			</g>
			<rect x="219.5" y="14.7" class="st1" width="12.9" height="2"/>
			<rect x="219.5" y="23.1" class="st1" width="12.9" height="2"/>
			<rect x="219.5" y="32" class="st1" width="12.9" height="2"/>
		</g>
		<g>
			<path class="st1" d="M101.1,51.2v-4.7l-2.3,3.9h-0.5L96,46.6v4.6h-1.3v-7h1.1l2.8,4.6l2.7-4.6h1.1v7L101.1,51.2z"/>
			<path class="st1" d="M111.8,49.6h-3.5l-0.7,1.6h-1.3l3.1-7h1.3l3.2,7h-1.4L111.8,49.6z M111.4,48.5l-1.3-3l-1.3,3H111.4z"/>
			<path class="st1" d="M120.2,48.3l-1.1,1.1v1.8h-1.3v-7h1.3v3.6l3.4-3.6h1.5l-3,3.1l3.2,3.9h-1.6L120.2,48.3z"/>
			<path class="st1" d="M133.3,50.1v1.1h-5.2v-7h5.1v1.1h-3.8v1.8h3.3v1.1h-3.3v1.9L133.3,50.1z"/>
			<path class="st1" d="M148.1,49.6h-3.5l-0.7,1.6h-1.4l3.2-7h1.3l3.1,7h-1.3L148.1,49.6z M147.6,48.5l-1.3-3l-1.3,3H147.6z"/>
			<path class="st1" d="M159.8,44.2h3c2.3,0,3.8,1.4,3.8,3.5s-1.5,3.5-3.8,3.5h-3V44.2z M162.8,50.1c1.3,0.1,2.4-0.8,2.5-2.1
				c0-0.1,0-0.2,0-0.3c0.1-1.3-0.9-2.3-2.2-2.4c-0.1,0-0.2,0-0.3,0h-1.7v4.8L162.8,50.1z"/>
			<path class="st1" d="M171,44.2h1.3v7H171V44.2z"/>
			<path class="st1" d="M178.5,45.3v2.1h3.4v1.1h-3.4v2.7h-1.3v-7h5.1v1.1L178.5,45.3z"/>
			<path class="st1" d="M187.9,45.3v2.1h3.4v1.1h-3.4v2.7h-1.3v-7h5.1v1.1L187.9,45.3z"/>
			<path class="st1" d="M201.2,50.1v1.1H196v-7h5.1v1.1h-3.8v1.8h3.3v1.1h-3.3v1.9L201.2,50.1z"/>
			<path class="st1" d="M210.2,51.2l-1.4-2.1H207v2.1h-1.3v-7h2.8c1.9,0,3,0.9,3,2.5c0.1,1-0.6,1.9-1.5,2.2l1.6,2.3H210.2z
				 M208.5,45.3H207v2.8h1.5c1.1,0,1.7-0.5,1.7-1.4S209.6,45.3,208.5,45.3z"/>
			<path class="st1" d="M221.2,50.1v1.1H216v-7h5.1v1.1h-3.8v1.8h3.3v1.1h-3.3v1.9L221.2,50.1z"/>
			<path class="st1" d="M231.9,44.2v7h-1.1l-3.8-4.8v4.8h-1.3v-7h1l3.9,4.7v-4.7H231.9z"/>
			<path class="st1" d="M236.3,47.6c0.2-2.1,2-3.6,4.1-3.4c0.8,0.1,1.6,0.4,2.3,1l-0.8,0.8c-0.5-0.5-1.1-0.8-1.8-0.8
				c-1.3-0.1-2.4,0.8-2.5,2.1c0,0.1,0,0.2,0,0.3c-0.1,1.3,1,2.4,2.3,2.5c0.1,0,0.1,0,0.2,0c0.7,0,1.3-0.3,1.8-0.8l0.8,0.8
				c-1.4,1.5-3.7,1.6-5.2,0.2C236.7,49.6,236.3,48.6,236.3,47.6z"/>
			<path class="st1" d="M252.3,50.1v1.1H247v-7h5.1v1.1h-3.8v1.8h3.4v1.1h-3.4v1.9L252.3,50.1z"/>
		</g>
	</g>
</g>
</svg>
